<?xml version="1.0" encoding="UTF-8"?><svg id="_이어_2" xmlns="http://www.w3.org/2000/svg" viewBox="0 0 105.43 121.72"><defs><style>.cls-1{fill:#fff;}</style></defs><g id="_이어_1-2"><g><path class="cls-1" d="M85.93,0H32.02C22.84,0,15.15,6.38,13.08,14.93,5.48,17.59,0,24.82,0,33.33V102.22c0,10.75,8.75,19.5,19.5,19.5H92.91v-13.83h12.52V19.5c0-10.75-8.75-19.5-19.5-19.5Zm16.5,104.9H32.02c-9.1,0-16.5-7.4-16.5-16.5V19.5c0-.75,.07-1.49,.17-2.21,.15-1.11,.41-2.17,.76-3.2,2.25-6.44,8.37-11.09,15.57-11.09h53.91c9.1,0,16.5,7.4,16.5,16.5V104.9Z"/><rect class="cls-1" x="29.87" y="26.62" width="58.21" height="3"/><rect class="cls-1" x="29.87" y="43.84" width="58.21" height="3"/><rect class="cls-1" x="29.87" y="61.06" width="58.21" height="3"/><rect class="cls-1" x="29.87" y="78.28" width="58.21" height="3"/></g></g></svg>