<?xml version="1.0" encoding="UTF-8"?>
<svg id="_이어_2" xmlns="http://www.w3.org/2000/svg" viewBox="0 0 60.15 60.15">
	<def>
		<style>
			.closeX{fill:#fff}
		</style>
	</def>
	<g id="_이어_1-2">
		<path class="closeX" d="M39.91,30.08L58.11,11.88c2.72-2.72,2.72-7.12,0-9.84-2.72-2.72-7.12-2.72-9.84,0L30.08,20.24,11.88,2.04C9.16-.68,4.75-.68,2.04,2.04-.68,4.75-.68,9.16,2.04,11.88L20.24,30.08,2.04,48.28c-2.72,2.72-2.72,7.12,0,9.84s7.12,2.72,9.84,0l18.2-18.2,18.2,18.2c2.72,2.72,7.12,2.72,9.84,0,2.72-2.72,2.72-7.12,0-9.84l-18.2-18.2Z" />
	</g>
</svg>
