<?xml version="1.0" encoding="UTF-8"?><svg id="_이어_2" xmlns="http://www.w3.org/2000/svg" viewBox="0 0 25.66 17.17"><defs><style>.cls-1{fill:#fff;}</style></defs><g id="transport"><g><path class="cls-1" d="M7.97,7.63c.1,0,.19,.01,.3,.01,.61,0,1.2-.17,1.71-.49-.6-.82-.95-1.83-.95-2.91v-.85c0-1.08,.35-2.09,.95-2.9C9.38,.12,8.69-.05,7.97,.01c-1.66,.14-2.96,1.63-2.96,3.38v.85c0,1.75,1.3,3.24,2.96,3.38Z"/><path class="cls-1" d="M4.03,15.83c.23-2.36,1.33-4.51,3-6.1v-.02c-.53-.61-1.38-.82-2.08-.51C2.2,10.4,.3,12.99,0,15.97c-.03,.3,.07,.61,.27,.84,.21,.23,.5,.36,.81,.36h3.19c-.2-.41-.29-.87-.25-1.34Z"/><path class="cls-1" d="M13.43,7.63c.1,0,.19,.01,.3,.01,.82,0,1.58-.3,2.19-.85,.67-.61,1.05-1.49,1.05-2.4v-1.15c0-.91-.38-1.78-1.05-2.4h0c-.16-.15-.33-.27-.51-.38-.06-.04-.12-.06-.19-.09-.13-.07-.25-.13-.39-.18-.08-.03-.16-.05-.24-.07-.12-.03-.25-.07-.38-.09-.09-.01-.17-.02-.26-.02-.07,0-.15-.02-.22-.02-.1,0-.19,0-.29,.01h0c-1.02,.09-1.89,.68-2.42,1.53-.34,.54-.54,1.17-.54,1.85v.85c0,.68,.2,1.32,.54,1.85,.53,.85,1.41,1.44,2.42,1.53Z"/><path class="cls-1" d="M17.03,9.2c-.22-.09-.45-.14-.69-.14-.51,0-1.03,.23-1.39,.66l-.95,1.13v.02c-.11,.12-.22,.13-.29,.13s-.18-.01-.27-.13l-.97-1.15s-.07-.06-.1-.09c-.05-.05-.11-.11-.16-.16-.03-.02-.05-.04-.08-.06-.08-.05-.15-.1-.24-.14-.03-.01-.05-.03-.08-.04-.11-.05-.22-.09-.33-.11-.02,0-.04,0-.06-.01-.09-.02-.19-.03-.29-.03-.02,0-.03,0-.05,0s-.03,0-.05,0c-.01,0-.03,0-.04,0-.06,0-.12,0-.18,.02-.03,0-.06,0-.1,.02-.11,.02-.21,.05-.31,.1-.28,.12-.55,.27-.81,.42-.6,.34-1.14,.76-1.63,1.22-1.39,1.34-2.31,3.14-2.51,5.12-.03,.3,.07,.61,.27,.84,.21,.23,.5,.36,.81,.36h14.34c.31,0,.6-.13,.81-.36,.2-.22,.3-.53,.27-.84-.3-2.98-2.19-5.57-4.94-6.77Z"/><path class="cls-1" d="M24.91,3.75h-1.98V1.78c0-.42-.34-.75-.75-.75h0c-.42,0-.75,.34-.75,.75v1.98h-1.98c-.42,0-.75,.34-.75,.75s.34,.75,.75,.75h1.98v1.98c0,.42,.34,.75,.75,.75h0c.42,0,.75-.34,.75-.75v-1.98h1.98c.42,0,.75-.34,.75-.75s-.34-.75-.75-.75Z"/></g></g></svg>