<?xml version="1.0" encoding="UTF-8"?><svg id="_이어_2" xmlns="http://www.w3.org/2000/svg" viewBox="0 0 24.23 14.97"><defs><style>.cls-1{fill:#fff;}</style></defs><g id="transport"><g><path class="cls-1" d="M23.35,1.15c-.39-.68-1.12-1.15-1.96-1.15H2.26C1.01,0,0,1.01,0,2.26V12.04c0,.73,.35,1.37,.89,1.79,.39,.68,1.12,1.14,1.95,1.14H21.97c1.25,0,2.26-1.01,2.26-2.26V2.93c0-.73-.35-1.37-.89-1.78ZM1,5.8H22.65v6.24c0,.7-.57,1.26-1.26,1.26H2.26c-.7,0-1.26-.57-1.26-1.26V5.8ZM22.65,3.54H1v-1.28c0-.7,.57-1.26,1.26-1.26H21.39c.7,0,1.26,.57,1.26,1.26v1.28Z"/><rect class="cls-1" x="10.83" y="9.46" width="10.83" height="2.44" rx=".62" ry=".62"/></g></g></svg>